<svg xmlns="http://www.w3.org/2000/svg" xmlns:xlink="http://www.w3.org/1999/xlink" width="2000" zoomAndPan="magnify" viewBox="0 0 1500 1499.999933" height="2000" preserveAspectRatio="xMidYMid meet" version="1.0"><defs><g/><clipPath id="74d84f3a5b"><path d="M 186 430 L 1041 430 L 1041 1091.957031 L 186 1091.957031 Z M 186 430 " clip-rule="nonzero"/></clipPath><clipPath id="baef07315d"><rect x="0" width="675" y="0" height="892"/></clipPath><clipPath id="7d62763856"><path d="M 465.394531 1091.851562 L 1222.25 1091.851562 L 1222.25 1154.390625 L 465.394531 1154.390625 Z M 465.394531 1091.851562 " clip-rule="nonzero"/></clipPath><clipPath id="4b7e9c51cc"><path d="M 496.664062 1091.851562 L 1190.941406 1091.851562 C 1208.210938 1091.851562 1222.210938 1105.851562 1222.210938 1123.121094 C 1222.210938 1140.390625 1208.210938 1154.390625 1190.941406 1154.390625 L 496.664062 1154.390625 C 479.394531 1154.390625 465.394531 1140.390625 465.394531 1123.121094 C 465.394531 1105.851562 479.394531 1091.851562 496.664062 1091.851562 Z M 496.664062 1091.851562 " clip-rule="nonzero"/></clipPath><clipPath id="35d17f5542"><path d="M 0.394531 0.851562 L 757.25 0.851562 L 757.25 63.390625 L 0.394531 63.390625 Z M 0.394531 0.851562 " clip-rule="nonzero"/></clipPath><clipPath id="96022c011f"><path d="M 31.664062 0.851562 L 725.941406 0.851562 C 743.210938 0.851562 757.210938 14.851562 757.210938 32.121094 C 757.210938 49.390625 743.210938 63.390625 725.941406 63.390625 L 31.664062 63.390625 C 14.394531 63.390625 0.394531 49.390625 0.394531 32.121094 C 0.394531 14.851562 14.394531 0.851562 31.664062 0.851562 Z M 31.664062 0.851562 " clip-rule="nonzero"/></clipPath><clipPath id="214475c099"><rect x="0" width="758" y="0" height="64"/></clipPath></defs><rect x="-150" width="1800" fill="#ffffff" y="-149.999993" height="1799.99992" fill-opacity="1"/><rect x="-150" width="1800" fill="#000000" y="-149.999993" height="1799.99992" fill-opacity="1"/><g clip-path="url(#74d84f3a5b)"><path fill="#ffffff" d="M 541.652344 785.9375 L 248.839844 1078.746094 C 241.691406 1085.894531 232.328125 1089.472656 222.960938 1089.472656 C 213.597656 1089.472656 204.234375 1085.898438 197.085938 1078.746094 C 182.785156 1064.449219 182.785156 1041.289062 197.085938 1026.992188 L 464.015625 760.058594 L 197.085938 493.125 C 182.785156 478.828125 182.785156 455.667969 197.085938 441.367188 C 211.382812 427.070312 234.542969 427.070312 248.839844 441.367188 L 541.652344 734.179688 C 555.949219 748.476562 555.949219 771.640625 541.652344 785.9375 Z M 1003.792969 1113.871094 L 515.773438 1113.871094 C 495.566406 1113.871094 479.171875 1130.265625 479.171875 1150.472656 C 479.171875 1170.679688 495.566406 1187.074219 515.773438 1187.074219 L 1003.792969 1187.074219 C 1024 1187.074219 1040.394531 1170.679688 1040.394531 1150.472656 C 1040.394531 1130.265625 1024 1113.871094 1003.792969 1113.871094 Z M 1003.792969 1113.871094 " fill-opacity="1" fill-rule="nonzero"/></g><g transform="matrix(1, 0, 0, 1, 566, 304)"><g clip-path="url(#baef07315d)"><g fill="#ffffff" fill-opacity="1"><g transform="translate(0.73407, 684.593159)"><g><path d="M 28.859375 -107.328125 C 164.066406 -99.921875 255.601562 -96.21875 303.46875 -96.21875 C 314.8125 -96.21875 323.8125 -99.546875 330.46875 -106.203125 C 337.132812 -112.867188 340.46875 -121.878906 340.46875 -133.234375 L 340.46875 -199.84375 L 170.234375 -199.84375 C 118.421875 -199.84375 80.796875 -211.5625 57.359375 -235 C 33.921875 -258.4375 22.203125 -296.0625 22.203125 -347.875 L 22.203125 -370.078125 C 22.203125 -421.890625 33.921875 -459.515625 57.359375 -482.953125 C 80.796875 -506.390625 118.421875 -518.109375 170.234375 -518.109375 L 430.03125 -518.109375 L 430.03125 -414.484375 L 199.84375 -414.484375 C 170.238281 -414.484375 155.4375 -399.679688 155.4375 -370.078125 L 155.4375 -355.28125 C 155.4375 -325.664062 170.238281 -310.859375 199.84375 -310.859375 L 333.0625 -310.859375 C 381.425781 -310.859375 416.957031 -299.507812 439.65625 -276.8125 C 462.351562 -254.113281 473.703125 -218.585938 473.703125 -170.234375 L 473.703125 -133.234375 C 473.703125 -84.867188 462.351562 -49.335938 439.65625 -26.640625 C 416.957031 -3.941406 381.425781 7.40625 333.0625 7.40625 C 307.90625 7.40625 281.265625 6.910156 253.140625 5.921875 L 185.03125 2.953125 C 134.707031 0.492188 82.648438 -2.957031 28.859375 -7.40625 Z M 28.859375 -107.328125 "/></g></g></g><g fill="#ffde59" fill-opacity="1"><g transform="translate(496.639189, 684.593159)"><g><path d="M 22.203125 -111.015625 L 155.4375 -111.015625 L 155.4375 0 L 22.203125 0 Z M 22.203125 -111.015625 "/></g></g></g></g></g><g clip-path="url(#7d62763856)"><g clip-path="url(#4b7e9c51cc)"><g transform="matrix(1, 0, 0, 1, 465, 1091)"><g clip-path="url(#214475c099)"><g clip-path="url(#35d17f5542)"><g clip-path="url(#96022c011f)"><path fill="#ffffff" d="M 0.394531 0.851562 L 757.25 0.851562 L 757.25 63.390625 L 0.394531 63.390625 Z M 0.394531 0.851562 " fill-opacity="1" fill-rule="nonzero"/></g></g></g></g></g></g></svg>