<svg xmlns="http://www.w3.org/2000/svg" xmlns:xlink="http://www.w3.org/1999/xlink" width="2000" zoomAndPan="magnify" viewBox="0 0 1500 1499.999933" height="2000" preserveAspectRatio="xMidYMid meet" version="1.0"><defs><g/><clipPath id="4895624003"><path d="M 152 420 L 1007 420 L 1007 1081.929688 L 152 1081.929688 Z M 152 420 " clip-rule="nonzero"/></clipPath></defs><g clip-path="url(#4895624003)"><path fill="#ffffff" d="M 507.785156 775.910156 L 214.972656 1068.71875 C 207.824219 1075.867188 198.460938 1079.441406 189.09375 1079.441406 C 179.730469 1079.441406 170.367188 1075.867188 163.21875 1068.71875 C 148.917969 1054.421875 148.917969 1031.261719 163.21875 1016.960938 L 430.148438 750.03125 L 163.21875 483.097656 C 148.917969 468.800781 148.917969 445.636719 163.21875 431.339844 C 177.515625 417.042969 200.675781 417.042969 214.972656 431.339844 L 507.785156 724.152344 C 522.082031 738.449219 522.082031 761.609375 507.785156 775.910156 Z M 969.925781 1103.84375 L 481.90625 1103.84375 C 461.699219 1103.84375 445.304688 1120.238281 445.304688 1140.445312 C 445.304688 1160.652344 461.699219 1177.046875 481.90625 1177.046875 L 969.925781 1177.046875 C 990.132812 1177.046875 1006.527344 1160.652344 1006.527344 1140.445312 C 1006.527344 1120.238281 990.132812 1103.84375 969.925781 1103.84375 Z M 969.925781 1103.84375 " fill-opacity="1" fill-rule="nonzero"/></g><g fill="#ffffff" fill-opacity="1"><g transform="translate(601.628058, 1008.374893)"><g><path d="M 31.203125 -116 C 177.335938 -108 276.269531 -104 328 -104 C 340.269531 -104 350.003906 -107.597656 357.203125 -114.796875 C 364.398438 -121.992188 368 -131.726562 368 -144 L 368 -216 L 184 -216 C 128 -216 87.332031 -228.664062 62 -254 C 36.664062 -279.332031 24 -320 24 -376 L 24 -400 C 24 -456 36.664062 -496.664062 62 -522 C 87.332031 -547.332031 128 -560 184 -560 L 464.796875 -560 L 464.796875 -448 L 216 -448 C 184 -448 168 -432 168 -400 L 168 -384 C 168 -352 184 -336 216 -336 L 360 -336 C 412.269531 -336 450.671875 -323.734375 475.203125 -299.203125 C 499.734375 -274.671875 512 -236.269531 512 -184 L 512 -144 C 512 -91.726562 499.734375 -53.328125 475.203125 -28.796875 C 450.671875 -4.265625 412.269531 8 360 8 C 332.800781 8 304 7.46875 273.59375 6.40625 L 200 3.203125 C 145.601562 0.535156 89.335938 -3.195312 31.203125 -8 Z M 31.203125 -116 "/></g></g></g><g fill="#ffde59" fill-opacity="1"><g transform="translate(1137.631918, 1008.374893)"><g><path d="M 24 -120 L 168 -120 L 168 0 L 24 0 Z M 24 -120 "/></g></g></g></svg>